<svg xmlns="http://www.w3.org/2000/svg" viewBox="0 0 24 24" enable-background="new 0 0 24 24"><path d="M14 5h2v2h-2zM17 2H7c-1.1 0-2 .9-2 2v16c0 1.1.9 2 2 2h10c1.1 0 2-.9 2-2V4c0-1.1-.9-2-2-2zM8 19c-.6 0-1-.4-1-1s.4-1 1-1 1 .4 1 1-.4 1-1 1zm0-3c-.6 0-1-.4-1-1s.4-1 1-1 1 .4 1 1-.4 1-1 1zm0-3c-.6 0-1-.4-1-1s.4-1 1-1 1 .4 1 1-.4 1-1 1zm4 6c-.6 0-1-.4-1-1s.4-1 1-1 1 .4 1 1-.4 1-1 1zm0-3c-.6 0-1-.4-1-1s.4-1 1-1 1 .4 1 1-.4 1-1 1zm0-3c-.6 0-1-.4-1-1s.4-1 1-1 1 .4 1 1-.4 1-1 1zm4 6c-.6 0-1-.4-1-1s.4-1 1-1 1 .4 1 1-.4 1-1 1zm0-3c-.6 0-1-.4-1-1s.4-1 1-1 1 .4 1 1-.4 1-1 1zm0-3c-.6 0-1-.4-1-1s.4-1 1-1 1 .4 1 1-.4 1-1 1zm1-5H7V4h10v4z"/></svg>