<svg xmlns="http://www.w3.org/2000/svg" width="100" height="100" viewBox="0 0 100 100"><path fill="#0077b5" d="M95 59.727V93H75.71V61.955c0-7.8-2.79-13.12-9.773-13.12-5.33 0-8.502 3.586-9.897 7.055-.51 1.24-.64 2.967-.64 4.704V93H36.104s.26-52.58 0-58.028H55.4v8.225c-.04.062-.09.128-.128.188h.127v-.188c2.562-3.948 7.14-9.588 17.387-9.588C85.483 33.61 95 41.902 95 59.726zM15.92 7C9.317 7 5 11.33 5 17.024c0 5.57 4.193 10.03 10.663 10.03h.13c6.728 0 10.913-4.46 10.913-10.03C26.58 11.33 22.52 7 15.92 7zM6.145 93h19.29V34.972H6.145V93z"/></svg>