<svg xmlns="http://www.w3.org/2000/svg" viewBox="0 0 24 24" enable-background="new 0 0 24 24"><path d="M10.1 11.054l2.94-.985.953 2.844-2.94.984zM10.1 11.054l2.94-.985.953 2.844-2.94.984zM22.1 9C19.8 1.4 16.5-.3 9 1.9 1.4 4.2-.3 7.5 1.9 15c2.3 7.6 5.5 9.3 13.1 7.1 7.6-2.3 9.3-5.6 7.1-13.1zm-3.8 4.9l-1.4.5.5 1.5c.2.6-.1 1.2-.7 1.4-.1 0-.3.1-.4.1-.5 0-.9-.3-1.1-.8l-.5-1.5-2.9 1 .5 1.5c.2.6-.1 1.2-.7 1.4-.1 0-.3.1-.4.1-.5 0-.9-.3-1.1-.8l-.5-1.5-1.4.5c-.1 0-.3.1-.4.1-.5 0-.9-.3-1.1-.8-.2-.6.1-1.2.7-1.4l1.4-.5-.9-2.8-1.4.5c-.1 0-.3.1-.4.1-.5 0-.9-.3-1.1-.8-.2-.6.1-1.2.7-1.4l1.4-.5-.4-1.6c-.2-.6.1-1.3.7-1.5.6-.2 1.2.1 1.4.7l.5 1.5 2.9-1-.5-1.5c-.2-.6.1-1.2.7-1.4.6-.2 1.2.1 1.4.7l.5 1.5 1.4-.5c.6-.2 1.2.1 1.4.7.2.6-.1 1.2-.7 1.4l-1.4.5.9 2.8 1.4-.5c.6-.2 1.2.1 1.4.7.5.7.2 1.4-.4 1.6z"/></svg>