<svg xmlns="http://www.w3.org/2000/svg" viewBox="0 0 24 24" enable-background="new 0 0 24 24"><path d="M13.2 3.9c-.5-.2-1.1.1-1.3.6v.1c-.3 1-3.3 8.6-3.3 8.6h-.1L5.1 4.4v-.1c-.3-.5-.9-.7-1.4-.5-.5.2-.8.8-.6 1.3.4 1.1 4.4 10.8 4.4 10.8l-.3.6c-.4 1.2-.9 2-2.2 2h-.6c-.4 0-.8.3-.9.7-.1.5.2 1 .6 1.1.3.1.7.1 1 .1 2.4 0 3.2-1.4 4-3.4l4.6-11.5c0-.1.1-.1.1-.2.2-.7-.1-1.2-.6-1.4zM14.2 14.3c-.1 0-.2 0-.3.1-.1 0-.1.1-.1.2 0 .6 3.6 3 3.9 3.2l.1.1h.3c.3 0 .6-.2.8-.4.3-.4.2-1-.2-1.3-1.3-.8-3.6-1.9-4.5-1.9zM14.2 10.5c.8 0 3.2-1.1 4.5-1.9.4-.3.5-.9.2-1.3-.2-.3-.5-.4-.8-.4h-.3V7c-.3.2-3.9 2.6-3.9 3.2 0 .1 0 .2.1.2 0 .1.1.1.2.1zM20.2 11.4h-.1c-.4 0-4.6.4-5 .9 0 .1-.1.2 0 .2.4.7 5 .8 5.1.8.5-.1.8-.5.8-1 0-.4-.3-.8-.8-.9z"/></svg>