<?xml version="1.0" encoding="utf-8"?>
<!-- Generator: Adobe Illustrator 19.2.0, SVG Export Plug-In . SVG Version: 6.00 Build 0)  -->
<svg version="1.1" id="Layer_1" xmlns="http://www.w3.org/2000/svg" xmlns:xlink="http://www.w3.org/1999/xlink" x="0px" y="0px"
	 viewBox="0 0 24 24" style="enable-background:new 0 0 24 24;" xml:space="preserve">
<style type="text/css">
	.st0{fill:#767676;}
</style>
<g>
	<rect x="14" y="5" class="st0" width="2" height="2"/>
	<path class="st0" d="M17,2H7C5.9,2,5,2.9,5,4v16c0,1.1,0.9,2,2,2h10c1.1,0,2-0.9,2-2V4C19,2.9,18.1,2,17,2z M8,19c-0.6,0-1-0.4-1-1
		c0-0.6,0.4-1,1-1c0.6,0,1,0.4,1,1C9,18.6,8.6,19,8,19z M8,16c-0.6,0-1-0.4-1-1c0-0.6,0.4-1,1-1c0.6,0,1,0.4,1,1C9,15.6,8.6,16,8,16
		z M8,13c-0.6,0-1-0.4-1-1c0-0.6,0.4-1,1-1c0.6,0,1,0.4,1,1C9,12.6,8.6,13,8,13z M12,19c-0.6,0-1-0.4-1-1c0-0.6,0.4-1,1-1
		c0.6,0,1,0.4,1,1C13,18.6,12.6,19,12,19z M12,16c-0.6,0-1-0.4-1-1c0-0.6,0.4-1,1-1c0.6,0,1,0.4,1,1C13,15.6,12.6,16,12,16z M12,13
		c-0.6,0-1-0.4-1-1c0-0.6,0.4-1,1-1c0.6,0,1,0.4,1,1C13,12.6,12.6,13,12,13z M16,19c-0.6,0-1-0.4-1-1c0-0.6,0.4-1,1-1
		c0.6,0,1,0.4,1,1C17,18.6,16.6,19,16,19z M16,16c-0.6,0-1-0.4-1-1c0-0.6,0.4-1,1-1c0.6,0,1,0.4,1,1C17,15.6,16.6,16,16,16z M16,13
		c-0.6,0-1-0.4-1-1c0-0.6,0.4-1,1-1c0.6,0,1,0.4,1,1C17,12.6,16.6,13,16,13z M17,8H7V4h10L17,8z"/>
</g>
</svg>
