<svg xmlns="http://www.w3.org/2000/svg" viewBox="0 0 200 200" enable-background="new 0 0 200 200"><path d="M119.3 69.6c-3-.5-5.8-1.2-8.6-1.8-2.9-.7-5.6-1.3-8.3-1.8-1.1-.2-2.2-.3-3.2-.3-6.6 0-12.6 3.6-16 9.6-6.4 11.3-4.5 28.4 4.2 38.1.8.9 1.7 1.7 2.6 2.4-2.5-10.5-1.4-22 3.7-31 5.9-10.4 17-15.9 28.8-13.9 5.7 1 11.3 2.6 17 3.6 6.8 1.2 11.7-1.6 14.6-7.8 4.1-9 1.4-17.7-7.4-22.3 0 4-.9 8.1-2.7 12.1-3.9 8.6-11.2 13.5-20.1 13.5-1.6 0-3.1-.1-4.6-.4zM160.9 138.2c-1.5-1.7-3.2-2.9-5.1-3.7 0 4.9-1.4 9.8-4.5 13.7-4.3 5.5-9.7 10.2-15.3 13.2-11.4 6.3-24.1 9.6-36.5 9.6-2.1 0-4.2-.1-6.2-.3 17.2 7.4 37.8 7.1 56.8-3.3 4.7-2.6 9.1-6.6 12.4-10.8 4.1-5.4 2.8-13.5-1.6-18.4zM131.5 153.3c4.7-2.6 9.1-6.6 12.4-10.8 4.2-5.3 2.9-13.5-1.6-18.4-4.6-5-11-6.1-17.6-3-4.1 1.9-8 4.1-12.1 5.9-11.7 4.9-23.7 2.1-32.1-7.3-11.4-12.7-13.7-34.1-5.4-48.9 5.9-10.4 17-15.9 28.8-13.9 5.7 1 11.3 2.6 17 3.6 6.8 1.2 11.7-1.6 14.6-7.8 4.4-9.7 1-18.9-9.3-23.2-13.6-5.8-27.9-6.7-42.2-3.2-29.5 7-48.6 33.3-49 66.1.6 5.1 1 10.2 1.8 15.3 8 44.8 54.8 67.5 94.7 45.6z"/></svg>