<?xml version="1.0" encoding="utf-8"?>
<!-- Generator: Adobe Illustrator 19.2.0, SVG Export Plug-In . SVG Version: 6.00 Build 0)  -->
<svg version="1.1" id="Layer_1" xmlns="http://www.w3.org/2000/svg" xmlns:xlink="http://www.w3.org/1999/xlink" x="0px" y="0px"
	 viewBox="0 0 200 200" style="enable-background:new 0 0 200 200;" xml:space="preserve">
<style type="text/css">
	.st0{fill:#FFBA5B;}
	.st1{fill:#FF0600;}
</style>
<path class="st0" d="M119.3,69.6c-3-0.5-5.8-1.2-8.6-1.8c-2.9-0.7-5.6-1.3-8.3-1.8c-1.1-0.2-2.2-0.3-3.2-0.3c-6.6,0-12.6,3.6-16,9.6
	c-6.4,11.3-4.5,28.4,4.2,38.1c0.8,0.9,1.7,1.7,2.6,2.4c-2.5-10.5-1.4-22,3.7-31c5.9-10.4,17-15.9,28.8-13.9c5.7,1,11.3,2.6,17,3.6
	c6.8,1.2,11.7-1.6,14.6-7.8c4.1-9,1.4-17.7-7.4-22.3c0,4-0.9,8.1-2.7,12.1c-3.9,8.6-11.2,13.5-20.1,13.5
	C122.3,70,120.8,69.9,119.3,69.6L119.3,69.6z"/>
<path class="st0" d="M160.9,138.2c-1.5-1.7-3.2-2.9-5.1-3.7c0,4.9-1.4,9.8-4.5,13.7c-4.3,5.5-9.7,10.2-15.3,13.2
	c-11.4,6.3-24.1,9.6-36.5,9.6c-2.1,0-4.2-0.1-6.2-0.3c17.2,7.4,37.8,7.1,56.8-3.3c4.7-2.6,9.1-6.6,12.4-10.8
	C166.6,151.2,165.3,143.1,160.9,138.2L160.9,138.2z"/>
<path class="st1" d="M131.5,153.3c4.7-2.6,9.1-6.6,12.4-10.8c4.2-5.3,2.9-13.5-1.6-18.4c-4.6-5-11-6.1-17.6-3
	c-4.1,1.9-8,4.1-12.1,5.9c-11.7,4.9-23.7,2.1-32.1-7.3C69.1,107,66.8,85.6,75.1,70.8c5.9-10.4,17-15.9,28.8-13.9
	c5.7,1,11.3,2.6,17,3.6c6.8,1.2,11.7-1.6,14.6-7.8c4.4-9.7,1-18.9-9.3-23.2c-13.6-5.8-27.9-6.7-42.2-3.2c-29.5,7-48.6,33.3-49,66.1
	c0.6,5.1,1,10.2,1.8,15.3C44.8,152.5,91.6,175.2,131.5,153.3L131.5,153.3z"/>
</svg>
