<?xml version="1.0" encoding="utf-8"?>
<!-- Generator: Adobe Illustrator 19.2.0, SVG Export Plug-In . SVG Version: 6.00 Build 0)  -->
<svg version="1.1" id="Layer_1" xmlns="http://www.w3.org/2000/svg" xmlns:xlink="http://www.w3.org/1999/xlink" x="0px" y="0px"
	 viewBox="0 0 24 24" style="enable-background:new 0 0 24 24;" xml:space="preserve">
<style type="text/css">
	.st0{fill:#757575;}
</style>
<g>
	<path class="st0" d="M20,16H4c-1.1,0-2,0.9-2,2v4c0,1.1,0.9,2,2,2h16c1.1,0,2-0.9,2-2v-4C22,16.9,21.1,16,20,16z M14,21
		c-0.6,0-1-0.4-1-1s0.4-1,1-1s1,0.4,1,1S14.6,21,14,21z M17,21c-0.6,0-1-0.4-1-1s0.4-1,1-1s1,0.4,1,1S17.6,21,17,21z"/>
	<path class="st0" d="M15,0c-2.5,0-4.7,1.3-6,3.4c1,0.5,2,1.3,3,2.6l-0.8,0.6C9.7,4.5,8.4,4,7,4C4.2,4,2,6.2,2,9s2.2,5,5,5h8
		c3.9,0,7-3.1,7-7C22,3.1,18.9,0,15,0z"/>
</g>
</svg>
