<?xml version="1.0" encoding="utf-8"?>
<!-- Generator: Adobe Illustrator 19.1.0, SVG Export Plug-In . SVG Version: 6.00 Build 0)  -->
<svg version="1.1" id="Layer_1" xmlns="http://www.w3.org/2000/svg" xmlns:xlink="http://www.w3.org/1999/xlink" x="0px" y="0px"
	 viewBox="0 0 24 24" style="enable-background:new 0 0 24 24;" xml:space="preserve">
<style type="text/css">
	.st0{fill:#FFFFFF;}
</style>
<g>
	<path class="st0" d="M12,6.3C10.2,7.5,9,9.6,9,12s1.2,4.5,3,5.7c1.8-1.3,3-3.4,3-5.7C15,9.6,13.8,7.5,12,6.3z"/>
	<path class="st0" d="M7,12c0-2.6,1.1-5,3-6.7C9.4,5.1,8.7,5,8,5c-3.9,0-7,3.1-7,7s3.1,7,7,7c0.7,0,1.4-0.1,2-0.3
		C8.1,17,7,14.6,7,12z"/>
	<path class="st0" d="M16,5c-0.7,0-1.4,0.1-2,0.3c1.9,1.7,3,4.1,3,6.7s-1.1,5-3,6.7c0.6,0.2,1.3,0.3,2,0.3c3.9,0,7-3.1,7-7
		S19.9,5,16,5z"/>
</g>
</svg>
