<?xml version="1.0" encoding="utf-8"?>
<!-- Generator: Adobe Illustrator 19.2.0, SVG Export Plug-In . SVG Version: 6.00 Build 0)  -->
<svg version="1.1" id="Layer_1" xmlns="http://www.w3.org/2000/svg" xmlns:xlink="http://www.w3.org/1999/xlink" x="0px" y="0px"
	 viewBox="0 0 24 24" style="enable-background:new 0 0 24 24;" xml:space="preserve">
<style type="text/css">
	.st0{fill:#767676;}
</style>
<g>
	<path class="st0" d="M16,6h4.3c-0.1-0.1-0.2-0.3-0.3-0.4L15.4,1c-0.1-0.1-0.3-0.2-0.4-0.3V5C15,5.6,15.4,6,16,6z"/>
	<path class="st0" d="M16,8c-1.7,0-3-1.3-3-3V0H5C3.9,0,3,0.9,3,2v20c0,1.1,0.9,2,2,2h14c1.1,0,2-0.9,2-2V8H16z M6,8h4v2H6V8z
		 M16,18H6v-2h10V18z M16,14H6v-2h10V14z"/>
</g>
</svg>
