<svg xmlns="http://www.w3.org/2000/svg" viewBox="64.2 -17.3 24 24" enable-background="new 64.2 -17.3 24 24"><path d="M82.7-.3s0 .9-.1 1.4c0 0-2.4 1.5-6.3 1.5v-.1.1c-4 0-6.3-1.5-6.3-1.5-.2-.4-.1-1.4-.1-1.4-.1-.7 0-2.1 1.2-2.4 1.6-.4 3-1 3-1 .3-.4.3-1.1.3-1.1-.5-.5-.7-1.2-.8-1.8 0 0-.1.1-.1 0-.2 0-.4-.2-.6-1.1-.3-1.1 0-1.3.2-1.3h.1s-.8-2.5 1.1-3.6c0 0-.3-.2-.3-.6 0 0 .8.1 1.6.1.4 0 .7 0 1-.1h.3c.7 0 1.5.6 1.6 1.2.2 0 1.7.1 1 3.1h.1c.2 0 .5.2.2 1.3-.2.8-.4 1.1-.6 1.1-.1 0-.1 0-.1-.1-.1.6-.3 1.3-.8 1.8 0 0 .1.7.3 1.1 0 0 1.4.7 3 1.1 1.1.2 1.2 1.6 1.1 2.3zM69-.3c0-.4 0-1.1.2-1.6.1-.4.3-.7.6-.9.3-.3.7-.5 1.1-.7.5-.1 1.1-.3 1.5-.5-.1 0-.1 0-.2-.1 0 0-1.1-.3-1.6-.6-.1-.1-.2-.1-.2-.1v-.5s1.5.1 2.2-.7c0 0-1-.3-.8-2.1.2-1.9-.2-3.5-1.7-3.4 0 0-.7-.8-1.9-.3-.4.2-1.6.6-1.6 3.2C66.5-6 65.5-6 65.5-6s.5.7 2.2.7v.5s-.1.1-.2.1c-.5.4-1.5.7-1.6.7s-.4.1-1 .4c-.7.3-.7 1-.7 1v1.1c1.1 1 4.1 1.3 4.8 1.2 0 .1 0 .1 0 0zm18.5-3.3c-.7-.3-1-.4-1-.4s-1.1-.3-1.6-.6c-.1-.1-.2-.1-.2-.1v-.5s1.5.1 2.2-.7c0 0-1-.3-.8-2.1.2-1.9-.2-3.5-1.7-3.4 0 0-.7-.8-1.9-.3-.4.2-1.6.6-1.6 3.2 0 2.5-1 2.5-1 2.5s.5.7 2.2.7v.5s-.1.1-.2.1c-.5.4-1.6.7-1.6.7h-.1c.4.2 1 .4 1.5.5.4.1.8.3 1.1.7l.6.9c.2.5.2 1.1.2 1.6v.2c.7 0 3.6-.2 4.6-1.4v-1.1c0-.1 0-.7-.7-1z"/></svg>