<svg class="icon feature__icon" xmlns="http://www.w3.org/2000/svg" viewBox="0 0 24 24" enable-background="new 0 0 24 24"><path d="M9.4 15.5c0 1.4-1.1 2.5-2.5 2.5s-2.5-1.1-2.5-2.5S5.5 13 6.9 13c1.3 0 2.5 1.1 2.5 2.5"/><path d="M11.7 22c-.4-1.7-2-3-3.9-3h-2C4 19 2.4 20.3 2 22h9.7zM19.6 15.5c0 1.4-1.1 2.5-2.5 2.5s-2.5-1.1-2.5-2.5 1.1-2.5 2.5-2.5 2.5 1.1 2.5 2.5"/><path d="M22 22c-.4-1.7-2-3-3.9-3h-2c-1.9 0-3.4 1.3-3.9 3H22zM14.5 4.5C14.5 5.9 13.4 7 12 7S9.5 5.9 9.5 4.5 10.6 2 12 2s2.5 1.1 2.5 2.5"/><path d="M16.9 11c-.4-1.7-2-3-3.9-3h-2c-1.9 0-3.4 1.3-3.9 3h9.8z"/></svg>