<svg xmlns="http://www.w3.org/2000/svg" viewBox="0 0 24 24" enable-background="new 0 0 24 24"><path d="M21.7 9.7h-.5c-.6-1.5-1.7-2.7-3.1-3.4V6c0-1.3-1-2.3-2.3-2.3-.5 0-1 .2-1.4.5v3.6c.4.3.9.5 1.4.5.8 0 1.5-.4 1.9-1 1.2.6 2.1 1.6 2.6 2.8-.5.4-.8 1.1-.8 1.8s.3 1.4.9 1.8c-.5 1.3-1.4 2.3-2.6 2.9-.4-.6-1.1-1-1.9-1-.5 0-1 .2-1.4.5v3.6c.4.3.9.5 1.4.5 1.3 0 2.3-1 2.3-2.3v-.3c1.4-.7 2.6-1.9 3.2-3.4h.4c1.3 0 2.3-1 2.3-2.3-.1-1.2-1.1-2.2-2.4-2.2zM0 20.8l13.2 2.4V.8L0 3.2v17.6zM4.9 7.9c1-.6 2.1-.4 3.1-.3v1.9c-.8-.3-1.9-.8-2.6 0-.5 1.3 1.1 1.8 1.8 2.4 1.5.9 1.6 3.4.2 4.5-1.1.8-2.5.5-3.6 0 0-.7 0-1.3-.1-2 .8.6 1.9 1.4 2.8.6.7-1.1-.6-1.8-1.4-2.4-1.7-1-1.7-3.7-.2-4.7z"/></svg>