<svg xmlns="http://www.w3.org/2000/svg" viewBox="0 0 122 122" enable-background="new 0 0 122 122"><style type="text/css">.st0{fill:#E9A823;} .st1{fill:#3FB991;} .st2{fill:#E11765;} .st3{fill:#472A49;} .st4{fill:#CD2027;} .st5{fill:#71CBDC;} .st6{fill:#1D947E;} .st7{fill:#66873A;}</style><path class="st0" d="M79.1 7.5c-1.9-5.7-8-8.8-13.7-7-5.7 1.9-8.8 8-7 13.7l28.1 86.4c1.9 5.3 7.7 8.3 13.2 6.7 5.8-1.7 9.3-7.8 7.4-13.4 0-.2-28-86.4-28-86.4z"/><path class="st1" d="M35.6 21.7c-1.9-5.7-8-8.8-13.7-7s-8.8 8-7 13.7L43 114.8c1.9 5.3 7.7 8.3 13.2 6.7 5.8-1.7 9.3-7.8 7.4-13.4 0-.2-28-86.4-28-86.4z"/><path class="st2" d="M114.5 79.1c5.7-1.9 8.8-8 7-13.7-1.9-5.7-8-8.8-13.7-7L21.3 86.5c-5.3 1.9-8.3 7.7-6.7 13.2 1.7 5.8 7.8 9.3 13.4 7.4.2 0 86.5-28 86.5-28z"/><path class="st3" d="M39.3 103.5c5.6-1.8 12.9-4.2 20.7-6.7-1.8-5.6-4.2-12.9-6.7-20.7l-20.7 6.7 6.7 20.7z"/><path class="st4" d="M82.8 89.4c7.8-2.5 15.1-4.9 20.7-6.7-1.8-5.6-4.2-12.9-6.7-20.7l-20.7 6.7 6.7 20.7z"/><path class="st5" d="M100.3 35.6c5.7-1.9 8.8-8 7-13.7s-8-8.8-13.7-7L7.2 43C1.9 44.9-1.1 50.7.5 56.2c1.7 5.8 7.8 9.3 13.4 7.4.2 0 86.4-28 86.4-28z"/><path class="st6" d="M25.2 60c5.6-1.8 12.9-4.2 20.7-6.7-2.5-7.8-4.9-15.1-6.7-20.7l-20.7 6.7L25.2 60z"/><path class="st7" d="M68.7 45.8c7.8-2.5 15.1-4.9 20.7-6.7-2.5-7.8-4.9-15.1-6.7-20.7L62 25.2l6.7 20.6z"/></svg>