<svg xmlns="http://www.w3.org/2000/svg" viewBox="0 0 24 24" enable-background="new 0 0 24 24"><g><path d="M20.4 19.1c.7-.6 1.1-1.5 1.1-2.6 0-1.9-1.6-3.5-3.5-3.5s-3.5 1.6-3.5 3.5c0 1 .4 1.9 1.1 2.6-1.4.5-2.6 1.5-2.6 2.9h2c0-.6 1.4-1.4 3-1.4s3 .8 3 1.4h2c0-1.4-1.2-2.4-2.6-2.9zM18 15c.8 0 1.5.7 1.5 1.5S18.8 18 18 18s-1.5-.7-1.5-1.5.7-1.5 1.5-1.5zM8.4 19.1c.7-.6 1.1-1.5 1.1-2.6C9.5 14.6 7.9 13 6 13s-3.5 1.6-3.5 3.5c0 1 .4 1.9 1.1 2.6C2.2 19.6 1 20.6 1 22h2c0-.6 1.4-1.4 3-1.4s3 .8 3 1.4h2c0-1.4-1.2-2.4-2.6-2.9zM6 15c.8 0 1.5.7 1.5 1.5S6.8 18 6 18s-1.5-.7-1.5-1.5S5.2 15 6 15zM15 11h2c0-1.4-1.2-2.4-2.6-2.9.7-.6 1.1-1.5 1.1-2.6C15.5 3.6 13.9 2 12 2S8.5 3.6 8.5 5.5c0 1 .4 1.9 1.1 2.6C8.2 8.6 7 9.6 7 11h2c0-.6 1.4-1.4 3-1.4s3 .8 3 1.4zm-3-7c.8 0 1.5.7 1.5 1.5S12.8 7 12 7s-1.5-.7-1.5-1.5S11.2 4 12 4z"/></g></svg>