<?xml version="1.0" encoding="utf-8"?>
<!-- Generator: Adobe Illustrator 19.2.0, SVG Export Plug-In . SVG Version: 6.00 Build 0)  -->
<svg version="1.1" id="Layer_1" xmlns="http://www.w3.org/2000/svg" xmlns:xlink="http://www.w3.org/1999/xlink" x="0px" y="0px"
	 viewBox="0 0 24 24" style="enable-background:new 0 0 24 24;" xml:space="preserve">
<g id="Line_Icons">
	<g>
		<path d="M20.4,19.1c0.7-0.6,1.1-1.5,1.1-2.6c0-1.9-1.6-3.5-3.5-3.5s-3.5,1.6-3.5,3.5c0,1,0.4,1.9,1.1,2.6C14.2,19.6,13,20.6,13,22
			h2c0-0.6,1.4-1.4,3-1.4s3,0.8,3,1.4h2C23,20.6,21.8,19.6,20.4,19.1z M18,15c0.8,0,1.5,0.7,1.5,1.5S18.8,18,18,18s-1.5-0.7-1.5-1.5
			S17.2,15,18,15z"/>
		<path d="M8.4,19.1c0.7-0.6,1.1-1.5,1.1-2.6C9.5,14.6,7.9,13,6,13s-3.5,1.6-3.5,3.5c0,1,0.4,1.9,1.1,2.6C2.2,19.6,1,20.6,1,22h2
			c0-0.6,1.4-1.4,3-1.4s3,0.8,3,1.4h2C11,20.6,9.8,19.6,8.4,19.1z M6,15c0.8,0,1.5,0.7,1.5,1.5S6.8,18,6,18s-1.5-0.7-1.5-1.5
			S5.2,15,6,15z"/>
		<path d="M15,11h2c0-1.4-1.2-2.4-2.6-2.9c0.7-0.6,1.1-1.5,1.1-2.6C15.5,3.6,13.9,2,12,2S8.5,3.6,8.5,5.5c0,1,0.4,1.9,1.1,2.6
			C8.2,8.6,7,9.6,7,11h2c0-0.6,1.4-1.4,3-1.4S15,10.4,15,11z M12,4c0.8,0,1.5,0.7,1.5,1.5S12.8,7,12,7s-1.5-0.7-1.5-1.5S11.2,4,12,4
			z"/>
	</g>
</g>
</svg>
